<svg width="539" height="524" fill="none">
<symbol id="clockFace" viewBox="0 0 539 524" xmlns="http://www.w3.org/2000/svg">
<path d="M279.5 477.469V482.375H278.438C273.938 482.458 270.354 483.792 267.688 486.375C265.021 488.958 263.479 492.594 263.062 497.281C265.458 494.531 268.729 493.156 272.875 493.156C276.833 493.156 279.99 494.552 282.344 497.344C284.719 500.135 285.906 503.74 285.906 508.156C285.906 512.844 284.625 516.594 282.062 519.406C279.521 522.219 276.104 523.625 271.812 523.625C267.458 523.625 263.927 521.958 261.219 518.625C258.51 515.271 257.156 510.958 257.156 505.688V503.469C257.156 495.094 258.938 488.698 262.5 484.281C266.083 479.844 271.406 477.573 278.469 477.469H279.5ZM271.906 497.969C269.927 497.969 268.104 498.562 266.438 499.75C264.771 500.938 263.615 502.427 262.969 504.219V506.344C262.969 510.094 263.812 513.115 265.5 515.406C267.188 517.698 269.292 518.844 271.812 518.844C274.417 518.844 276.458 517.885 277.938 515.969C279.438 514.052 280.188 511.542 280.188 508.438C280.188 505.312 279.427 502.792 277.906 500.875C276.406 498.938 274.406 497.969 271.906 497.969Z" fill="var(--clock-face-color)"/>
<path d="M257.844 59H252.031V20.4688L240.375 24.75V19.5L256.938 13.2812H257.844V59ZM304.594 59H274.781V54.8438L290.531 37.3438C292.865 34.6979 294.469 32.5521 295.344 30.9062C296.24 29.2396 296.688 27.5208 296.688 25.75C296.688 23.375 295.969 21.4271 294.531 19.9062C293.094 18.3854 291.177 17.625 288.781 17.625C285.906 17.625 283.667 18.4479 282.062 20.0938C280.479 21.7188 279.688 23.9896 279.688 26.9062H273.906C273.906 22.7188 275.25 19.3333 277.938 16.75C280.646 14.1667 284.26 12.875 288.781 12.875C293.01 12.875 296.354 13.9896 298.812 16.2188C301.271 18.4271 302.5 21.375 302.5 25.0625C302.5 29.5417 299.646 34.875 293.938 41.0625L281.75 54.2812H304.594V59Z" fill="var(--clock-face-color)"/>
<path d="M504.219 264.438H508.562C511.292 264.396 513.438 263.677 515 262.281C516.562 260.885 517.344 259 517.344 256.625C517.344 251.292 514.688 248.625 509.375 248.625C506.875 248.625 504.875 249.344 503.375 250.781C501.896 252.198 501.156 254.083 501.156 256.438H495.375C495.375 252.833 496.688 249.844 499.312 247.469C501.958 245.073 505.312 243.875 509.375 243.875C513.667 243.875 517.031 245.01 519.469 247.281C521.906 249.552 523.125 252.708 523.125 256.75C523.125 258.729 522.479 260.646 521.188 262.5C519.917 264.354 518.177 265.74 515.969 266.656C518.469 267.448 520.396 268.76 521.75 270.594C523.125 272.427 523.812 274.667 523.812 277.312C523.812 281.396 522.479 284.635 519.812 287.031C517.146 289.427 513.677 290.625 509.406 290.625C505.135 290.625 501.656 289.469 498.969 287.156C496.302 284.844 494.969 281.792 494.969 278H500.781C500.781 280.396 501.562 282.312 503.125 283.75C504.688 285.188 506.781 285.906 509.406 285.906C512.198 285.906 514.333 285.177 515.812 283.719C517.292 282.26 518.031 280.167 518.031 277.438C518.031 274.792 517.219 272.76 515.594 271.344C513.969 269.927 511.625 269.198 508.562 269.156H504.219V264.438Z" fill="var(--clock-face-color)"/>
<path d="M36.9688 270C35.7604 271.438 34.3125 272.594 32.625 273.469C30.9583 274.344 29.125 274.781 27.125 274.781C24.5 274.781 22.2083 274.135 20.25 272.844C18.3125 271.552 16.8125 269.74 15.75 267.406C14.6875 265.052 14.1562 262.458 14.1562 259.625C14.1562 256.583 14.7292 253.844 15.875 251.406C17.0417 248.969 18.6875 247.104 20.8125 245.812C22.9375 244.521 25.4167 243.875 28.25 243.875C32.75 243.875 36.2917 245.562 38.875 248.938C41.4792 252.292 42.7812 256.875 42.7812 262.688V264.375C42.7812 273.229 41.0312 279.698 37.5312 283.781C34.0312 287.844 28.75 289.927 21.6875 290.031H20.5625V285.156H21.7812C26.5521 285.073 30.2188 283.833 32.7812 281.438C35.3438 279.021 36.7396 275.208 36.9688 270ZM28.0625 270C30 270 31.7812 269.406 33.4062 268.219C35.0521 267.031 36.25 265.562 37 263.812V261.5C37 257.708 36.1771 254.625 34.5312 252.25C32.8854 249.875 30.8021 248.688 28.2812 248.688C25.7396 248.688 23.6979 249.667 22.1562 251.625C20.6146 253.562 19.8438 256.125 19.8438 259.312C19.8438 262.417 20.5833 264.979 22.0625 267C23.5625 269 25.5625 270 28.0625 270Z" fill="var(--clock-face-color)"/>
<line x1="143.165" y1="48.75" x2="159.165" y2="76.4628" stroke="var(--clock-face-color)" stroke-width="5"/>
<line x1="386.165" y1="462.75" x2="402.165" y2="490.463" stroke="var(--clock-face-color)" stroke-width="5"/>
<line x1="53.25" y1="142.835" x2="80.9628" y2="158.835" stroke="var(--clock-face-color)" stroke-width="5"/>
<line x1="50.75" y1="393.835" x2="78.4628" y2="377.835" stroke="var(--clock-face-color)" stroke-width="5"/>
<line x1="462.75" y1="158.835" x2="490.463" y2="142.835" stroke="var(--clock-face-color)" stroke-width="5"/>
<line x1="381.835" y1="76.4628" x2="397.835" y2="48.75" stroke="var(--clock-face-color)" stroke-width="5"/>
<line x1="146.835" y1="490.463" x2="162.835" y2="462.75" stroke="var(--clock-face-color)" stroke-width="5"/>
<line x1="465.25" y1="377.835" x2="492.963" y2="393.835" stroke="var(--clock-face-color)" stroke-width="5"/>
</symbol>
</svg>
